<svg width="654" height="220" viewBox="0 0 654 220" fill="none" xmlns="http://www.w3.org/2000/svg">
<path d="M512.1 169.47C509.64 167.41 505.89 166.38 500.84 166.38C498.53 166.38 495.84 166.55 492.79 166.9C490.65 167.14 488.37 167.65 487.56 167.84C486.61 168.07 485.75 169.53 485.58 171.25C485.39 173.12 485.69 174.79 486.67 174.78C486.81 174.78 487.05 174.72 487.09 174.71C490.98 173.59 495.5 172.92 499.13 172.92C502.11 172.92 504.22 173.41 505.47 174.39C506.72 175.37 507.34 176.87 507.34 178.89V184.15C503.81 182.82 500.53 182.16 497.49 182.16C493.1 182.16 489.7 183.09 487.29 184.95C484.87 186.81 483.66 189.47 483.66 192.92V194.2C483.66 196.3 484.1 198.1 484.98 199.6C485.86 201.1 487.09 202.27 488.69 203.09C490.28 203.91 492.03 204.51 493.93 204.89C495.83 205.26 497.96 205.45 500.33 205.45C503.01 205.45 505.76 205.23 508.58 204.79C509.88 204.59 512.34 204.06 512.41 204.04C514.41 203.58 515.81 201.86 515.79 200.13V178.9C515.79 174.68 514.56 171.53 512.1 169.47ZM507.34 199.54C504.97 200.15 502.85 200.46 500.96 200.46C495.33 200.46 492.51 198.36 492.51 194.16V193.8C492.51 191.91 493.15 190.46 494.45 189.43C495.74 188.41 497.63 187.9 500.13 187.9C503.37 187.9 505.78 188.39 507.35 189.37V199.53L507.34 199.54Z" fill="#939598"/>
<path d="M650.14 169.47C647.68 167.41 643.93 166.38 638.88 166.38C636.57 166.38 633.88 166.55 630.83 166.9C628.69 167.14 626.41 167.65 625.6 167.84C624.65 168.07 623.79 169.53 623.62 171.25C623.43 173.12 623.73 174.79 624.71 174.78C624.85 174.78 625.09 174.72 625.13 174.71C629.02 173.59 633.54 172.92 637.17 172.92C640.15 172.92 642.26 173.41 643.51 174.39C644.76 175.37 645.38 176.87 645.38 178.89V184.15C641.85 182.82 638.57 182.16 635.53 182.16C631.14 182.16 627.74 183.09 625.33 184.95C622.91 186.81 621.7 189.47 621.7 192.92V194.2C621.7 196.3 622.14 198.1 623.02 199.6C623.9 201.1 625.13 202.27 626.73 203.09C628.32 203.91 630.07 204.51 631.97 204.89C633.87 205.26 636 205.45 638.37 205.45C641.05 205.45 643.8 205.23 646.62 204.79C647.92 204.59 650.38 204.06 650.45 204.04C652.45 203.58 653.85 201.86 653.83 200.13V178.9C653.83 174.68 652.6 171.53 650.14 169.47ZM645.38 199.54C643.01 200.15 640.89 200.46 639 200.46C633.37 200.46 630.55 198.36 630.55 194.16V193.8C630.55 191.91 631.19 190.46 632.49 189.43C633.78 188.41 635.67 187.9 638.17 187.9C641.41 187.9 643.82 188.39 645.39 189.37V199.53L645.38 199.54Z" fill="#939598"/>
<path d="M612.68 203.54V180.62C612.68 176.07 611.47 172.52 609.04 169.99C606.61 167.45 602.88 166.18 597.86 166.18C593.86 166.18 589.73 167.05 585.44 168.8C582.96 167.05 579.47 166.18 574.98 166.18C572.2 166.18 569.28 166.56 566.23 167.33C563.71 167.97 562.03 168.49 560.26 169.37C558.29 170.34 558.4 172.38 558.4 172.38V203.73C558.4 204.71 560.28 205.51 562.61 205.51C564.94 205.51 566.82 204.72 566.82 203.73V174.82C567.64 174.4 568.79 174.01 570.27 173.66C571.75 173.3 573.07 173.12 574.23 173.12C576.64 173.12 578.42 173.62 579.57 174.62C580.72 175.63 581.3 177.03 581.3 178.83V203.16C581.3 203.16 581.3 203.52 581.3 203.73C581.3 204.71 583.18 205.51 585.51 205.51C587.84 205.51 589.72 204.72 589.72 203.73C589.72 203.58 589.72 203.24 589.72 203.24V175.46C590.57 174.88 591.72 174.34 593.2 173.86C594.67 173.37 595.98 173.12 597.11 173.12C599.52 173.12 601.32 173.85 602.5 175.3C603.68 176.75 604.27 178.78 604.27 181.37V203.26C604.27 203.26 604.27 203.53 604.27 203.73C604.27 204.71 606.15 205.51 608.48 205.51C610.81 205.51 612.69 204.72 612.69 203.73C612.69 203.64 612.69 203.53 612.69 203.53L612.68 203.54Z" fill="#939598"/>
<path d="M459.75 167.17C456.44 167.17 453.3 167.98 450.39 169.59C450.39 169.59 450.39 156.23 450.39 155.23C450.39 154.23 448.19 153.29 445.63 153.29C443.07 153.29 440.87 154.11 440.87 155.2V203.44C440.87 204.55 443 205.45 445.63 205.45C448.26 205.45 450.39 204.56 450.39 203.45C450.39 203.44 450.39 175.48 450.39 175.48C452.73 174.27 455.07 173.71 457.25 173.71C460.88 173.71 462.65 175.65 462.65 179.44V203.42C462.65 203.42 462.65 203.46 462.65 203.47C462.65 204.58 464.77 205.46 467.4 205.46C470.03 205.46 472.16 204.56 472.16 203.45V180.08C472.16 176.21 471.11 173.06 469.09 170.72C467.07 168.38 463.93 167.17 459.73 167.17H459.75Z" fill="#939598"/>
<path d="M551.12 170.76C551.12 168.64 550.63 166.99 549.39 166.88C548.15 166.77 547.04 166.67 545.71 166.67C542.1 166.67 537.92 168.04 536.03 170.54V168.58C536.03 167.93 535.66 167.33 534.62 167.33C534.61 167.33 531.89 167.33 531.87 167.33C529.59 167.33 527.74 169.03 527.7 171.13V202.19C527.7 202.19 527.7 203.86 527.7 203.98C527.7 205.2 530.07 205.68 531.87 205.68C533.35 205.68 536.04 205.3 536.04 204.01C536.04 203.8 536.04 202.81 536.04 202.81V179.16C536.96 177.35 539.22 175.22 542.08 174.37C544.42 173.68 547.24 173.72 548.94 174.23C550.2 174.6 551.14 172.96 551.14 170.77L551.12 170.76Z" fill="#939598"/>
<path d="M428.57 177.73C427.91 175.69 427.01 174 425.87 172.67C424.73 171.33 423.34 170.23 421.69 169.36C420.05 168.49 418.3 167.87 416.44 167.49C414.59 167.12 412.57 166.93 410.4 166.93C408.01 166.93 405.51 167.15 402.89 167.57C401.55 167.79 399.16 168.35 399.16 168.35C397.39 168.83 396.19 170.18 396.19 171.86V217.43C396.19 218.53 398.3 219.08 400.32 219.08C402.54 219.08 404.44 218.43 404.44 217.43C404.44 216.65 404.44 215.73 404.44 215.71V203.95C407.79 204.7 410.84 205.08 413.59 205.08C418.82 205.08 422.79 203.38 425.49 200C428.2 196.61 429.55 191.81 429.55 185.58V184.68C429.55 182.08 429.22 179.77 428.56 177.73H428.57ZM420.95 185.56C420.95 194.35 417.68 198.74 411.12 198.74C408.65 198.74 406.43 198.39 404.45 197.69V197.65C404.45 197.65 404.45 197.65 404.44 197.65V174.21C406.39 173.62 408.35 173.31 410.32 173.31C411.94 173.31 413.39 173.55 414.68 174.02C415.97 174.49 417.1 175.19 418.06 176.13C419.98 178 420.94 180.89 420.94 184.79V185.57L420.95 185.56Z" fill="#939598"/>
<path d="M430.97 68C428.51 65.12 425.52 62.75 421.98 60.87C418.44 59 414.68 57.66 410.69 56.85C406.7 56.04 402.37 55.64 397.68 55.64C392.54 55.64 387.14 56.1 381.5 57.02C378.62 57.49 373.48 58.69 373.48 58.69C369.68 59.73 367.09 62.63 367.09 66.24V164.36C367.09 166.72 371.64 167.92 375.98 167.92C380.77 167.92 384.86 166.51 384.86 164.36C384.86 162.68 384.86 160.69 384.86 160.65V135.34C392.07 136.96 398.63 137.77 404.55 137.77C415.81 137.77 424.36 134.12 430.18 126.83C436.01 119.54 438.92 109.19 438.92 95.78V93.85C438.92 88.26 438.21 83.28 436.79 78.89C435.37 74.5 433.43 70.87 430.98 67.99L430.97 68ZM420.3 95.7C420.3 114.59 413.26 124.04 399.18 124.04C393.87 124.04 389.09 123.28 384.85 121.78V71.31C389.04 70.03 393.26 69.38 397.5 69.38C404.43 69.38 409.96 71.39 414.1 75.42C418.23 79.44 420.3 85.64 420.3 94.03V95.7Z" fill="#0062AA"/>
<path d="M582.13 63.92C582.13 59.43 581.09 55.95 578.46 55.7C575.83 55.45 573.48 55.25 570.68 55.25C563.04 55.25 554.19 58.14 550.19 63.44V59.29C550.18 57.92 549.41 56.65 547.21 56.65C547.18 56.65 541.54 56.65 541.54 56.65C541.49 56.65 541.44 56.65 541.39 56.65C536.56 56.65 532.65 60.24 532.58 64.69V130.41C532.58 130.48 532.58 133.94 532.58 134.21C532.58 136.78 537.58 137.8 541.4 137.8C544.54 137.8 550.21 137 550.21 134.27C550.21 133.83 550.21 131.72 550.21 131.72V81.67C552.15 77.84 556.94 73.33 562.98 71.53C567.93 70.06 573.9 70.16 577.5 71.23C580.16 72.02 582.15 68.55 582.15 63.9L582.13 63.92Z" fill="#0062AA"/>
<path d="M266.37 28.04C260.85 28.04 257.17 29.64 257.15 31.84C257.15 31.84 257.15 33.45 257.15 33.47V73.93H213.51V31.84C213.51 29.37 209.16 28.04 204.28 28.04C199.76 28.04 195.05 29.24 195.05 31.84V134.18C195.05 136.77 199.9 137.94 204.28 137.94C208.66 137.94 213.51 136.78 213.51 134.16V88.47H257.15V134.15C257.15 136.65 261.67 137.94 266.38 137.94C271.09 137.94 275.61 136.62 275.61 134.16V31.84C275.61 29.48 271.56 28.04 266.38 28.04H266.37Z" fill="#0062AA"/>
<path d="M646.04 61.8301C640.85 57.4901 632.92 55.3101 622.26 55.3101C617.37 55.3101 611.71 55.6701 605.25 56.4101C600.73 56.9201 595.91 57.9901 594.21 58.4001C592.2 58.8801 590.39 61.9701 590.03 65.6001C589.63 69.5501 590.26 73.0701 592.33 73.0601C592.62 73.0601 593.14 72.9301 593.22 72.9101C601.43 70.5401 610.98 69.1201 618.64 69.1201C624.92 69.1201 629.38 70.1501 632.02 72.2301C634.66 74.3101 635.98 77.4801 635.98 81.7401V92.8501C628.52 90.0401 621.59 88.6401 615.19 88.6401C605.93 88.6401 598.75 90.6101 593.64 94.5401C588.53 98.4601 585.98 104.08 585.98 111.38V114.07C585.98 118.51 586.91 122.31 588.76 125.48C590.62 128.65 593.22 131.11 596.59 132.85C599.96 134.59 603.65 135.86 607.66 136.64C611.68 137.42 616.18 137.82 621.18 137.82C626.84 137.82 632.65 137.36 638.6 136.43C641.34 136 646.55 134.89 646.7 134.85C650.92 133.88 653.89 130.24 653.85 126.59V81.7501C653.85 72.8301 651.25 66.1901 646.06 61.8401L646.04 61.8301ZM635.98 125.35C630.98 126.64 626.49 127.29 622.51 127.29C610.61 127.29 604.66 122.85 604.66 113.98V113.23C604.66 109.24 606.02 106.17 608.75 104.01C611.47 101.85 615.47 100.77 620.74 100.77C627.59 100.77 632.67 101.81 635.98 103.88V125.35Z" fill="#0062AA"/>
<path d="M348.07 55.4301C343.86 55.4301 339.32 56.7601 339.17 59.5201C339.13 60.1701 339.05 61.7701 339.05 61.7701C337.78 86.0701 332.8 105.7 323.68 121.35C323.68 121.35 316.58 110.34 310.38 88.2901C306.77 75.4401 305.73 59.4701 305.73 59.4601C305.73 56.0901 300.88 55.4301 296.6 55.4301C292.95 55.4301 287.3 56.6801 287.39 59.5101C287.5 62.9601 289.26 74.9601 291.02 82.3901C292.82 89.9701 294.58 96.5401 296.53 102.06C298.48 107.58 300.64 112.83 303.03 117.81C305.41 122.8 307.45 126.71 309.15 129.54C310.85 132.37 312.44 134.78 313.92 136.78C309.65 143.05 300.98 153.68 293.5 162.34C293.5 162.34 292.87 163.01 292.92 163.78C293.05 166.07 297.33 167.94 302.77 167.94C307.25 167.94 310.93 166.49 313.13 163.79C318.58 156.84 321.89 152.53 324.75 148.68C327.97 144.36 332.03 138.3 336.91 130.51C341.8 122.72 345.42 115.82 347.78 109.81C350.14 103.79 352.25 96.6101 354.11 88.2701C355.97 79.93 356.9 71.4001 356.9 62.7001V59.6001C356.9 56.6401 352.95 55.4501 348.08 55.4501L348.07 55.4301Z" fill="#0062AA"/>
<path d="M512.06 65.2101C505.88 58.6101 496.86 55.3101 484.98 55.3101C473.1 55.3101 464.19 58.7001 458.23 65.4601C452.27 72.2301 449.29 82.1601 449.29 95.2401V97.7601C449.29 111.75 452.81 121.93 459.86 128.3C466.9 134.68 477.52 137.86 491.72 137.86C494.07 137.86 496.42 137.79 498.77 137.6C500.85 137.44 502.93 137.19 504.99 136.81C506.82 136.47 508.63 136.04 510.4 135.45C511.99 134.93 513.54 134.29 515.02 133.5C515.71 133.13 516.39 132.73 517.04 132.29C518.2 131.51 519.2 130.64 519.87 129.39C520.53 128.16 520.87 126.77 521.09 125.41C521.67 121.68 520.91 118.47 519.33 118.22C519.04 118.17 518.77 118.18 518.4 118.36C511.01 122.24 503.87 124.03 494.18 124.03C485.12 124.03 478.6 122.41 474.63 119.18C470.66 115.95 468.45 110.21 468 101.95H516.8C519.25 101.95 521.33 100 521.33 97.5501V95.5501C521.33 81.9101 518.24 71.7801 512.06 65.1901V65.2101ZM467.83 89.8501C468.28 82.8601 469.97 77.6601 472.9 74.2501C475.83 70.8401 480.19 69.1301 485.99 69.1301C497.31 69.1301 503.13 76.0401 503.47 89.8501H467.83Z" fill="#0062AA"/>
<path d="M144.22 68.78C140.63 68.78 137.01 70.21 134.1 72.85C131.37 75.33 129.43 78.54 128 81.96C134.54 86.98 140.13 93.27 143.69 100.72C144.8 103.04 145.74 105.44 146.5 107.9C146.99 109.51 147.41 111.15 147.73 112.81C151.54 108.83 154.84 104.34 157.1 99.34C160.99 90.74 160.53 79.68 153.56 72.7C150.88 70.02 147.57 68.77 144.22 68.77M88.03 0C82.19 0 76.48 1.26 72 4.87C60.68 13.99 62.54 31.64 57.16 43.95C53.45 52.44 47.87 60 40.41 65.55C38.36 67.07 36.27 68.54 34.1 69.88C32.07 71.13 29.97 72.28 27.78 73.24C25.65 74.17 23.44 74.92 21.18 75.44C18.82 75.98 16.41 76.26 14 76.32C13.74 76.32 13.48 76.32 13.22 76.32C11.18 76.32 9.14997 76.15 7.12997 75.88C6.45997 75.79 5.78997 75.69 5.10997 75.69C4.87997 75.69 4.63997 75.7 4.40997 75.73C2.92997 75.92 1.47997 76.67 0.739971 78C0.489971 78.44 0.329971 78.93 0.269971 79.43C0.229971 79.73 0.219971 79.85 0.219971 79.85C1.26997 88.68 6.82997 96.3 14.28 101.13C17.12 92.92 24.02 86.95 31.27 82.46C40.04 77.02 49.68 73.02 59.7 70.55C67.4 68.65 75.35 67.6 83.24 67.6C86.18 67.6 89.12 67.75 92.03 68.05C95.29 64.1 98.76 60.32 102.66 57C103.9 55.95 105.18 54.94 106.51 54C112.63 49.66 120.12 46.23 127.74 46.22C127.75 46.22 127.77 46.22 127.78 46.22C135.63 46.22 143.25 48.66 149.5 53.44C156.88 59.08 161.86 67.56 163.58 76.65C166.28 90.95 162.18 106.7 153.15 118.07C151.7 119.89 150.13 121.61 148.54 123.3C148.43 125.7 148.1 128.09 147.55 130.42C146.96 132.9 146.12 135.32 145.04 137.63C144.54 138.69 144 139.72 143.4 140.73C143.54 140.68 143.68 140.63 143.81 140.57C145.19 139.98 146.49 139.07 147.67 138.15C148.38 137.6 149.23 136.83 149.76 136.08C149.77 136.06 149.79 136.04 149.8 136.02C158.09 124.26 165.13 106.57 166.1 91.06C167.39 70.65 161.46 48.97 148.85 32.71C147.21 30.59 145.49 28.54 143.66 26.58C131.4 13.39 114.89 4.13 97.15 0.89C94.18 0.35 91.09 0 88.02 0" fill="#00BFDF"/>
<path d="M147.74 112.82C144.6 116.11 141.08 118.89 137.5 121.69C136.79 122.25 136.07 122.81 135.37 123.39C132.18 125.98 129.05 128.74 126.76 132.2C125.65 133.88 124.76 135.81 124.27 137.77C123.6 140.39 123.61 143.42 125.14 145.74C126.73 148.15 129.1 149.08 131.66 149.08C133.65 149.08 135.74 148.52 137.65 147.65C137.86 147.46 138.06 147.31 138.26 147.12C140.19 145.33 141.82 143.33 143.18 141.08C143.25 140.96 143.32 140.84 143.39 140.72C142.83 140.91 142.24 141.03 141.67 141.03C141.19 141.03 140.73 140.95 140.29 140.78C138.93 140.24 138.23 138.87 138.31 137.45C138.36 136.49 138.71 135.58 139.13 134.71C140.87 131.09 143.74 128.25 146.53 125.43C147.21 124.74 147.86 124 148.53 123.29C148.53 123.17 148.54 123.06 148.55 122.94C148.65 120.42 148.51 117.89 148.17 115.38C148.05 114.52 147.91 113.67 147.74 112.81M92.0201 68.04C90.3001 70.13 88.6301 72.26 86.9901 74.4C77.5201 86.74 66.0601 98.72 51.0901 104.08C45.9401 105.95 40.4301 106.98 34.9501 106.98C29.4701 106.98 24.2801 106 19.3801 103.87C17.6001 103.1 15.8901 102.18 14.2701 101.13C14.0401 101.79 13.8401 102.46 13.6701 103.15C9.91006 118.02 18.2501 134.12 28.3201 144.66C35.9101 152.6 45.4501 158.52 55.7001 162.52C62.4301 164.76 69.7701 166 77.0501 166C93.8101 166 110.23 159.45 118.09 143.51C121.81 135.97 122.87 127.5 123.31 119.2C123.75 110.83 123.55 102.39 124.81 94.08C125.32 90.71 126.08 87.37 127.2 84.15C127.45 83.42 127.73 82.7 128.03 81.98C125.88 80.33 123.63 78.82 121.31 77.45C112.24 72.09 102.27 69.11 92.0401 68.05" fill="#0062AA"/>
<path d="M149.75 136.08C149.21 136.83 148.37 137.59 147.66 138.15C146.48 139.07 145.18 139.97 143.8 140.57C143.67 140.63 143.53 140.68 143.39 140.73C143.32 140.85 143.25 140.97 143.18 141.09C141.82 143.34 140.19 145.34 138.26 147.13C138.05 147.32 137.85 147.47 137.65 147.66C137.79 147.6 137.92 147.54 138.05 147.47C138.84 147.08 140.66 146.1 142.47 144.48C142.64 144.33 142.8 144.18 142.97 144.02C143.16 143.84 143.35 143.66 143.52 143.49C145.62 141.45 147.72 138.94 149.74 136.08M0.05 82.42C0.03 82.85 0.02 83.28 0.01 83.71C0.01 84.14 0 84.57 0 85C0 85.43 0 85.87 0.02 86.3C0.02 86.74 0.04 87.17 0.06 87.61C0.08 88.05 0.1 88.49 0.13 88.93C0.16 89.36 0.18 89.8 0.22 90.24C0.68 95.88 1.74 101.47 3.35 106.91C5.65 114.62 9.11 122.18 13.59 129.16C15.08 131.46 16.68 133.69 18.38 135.83C24.81 143.92 32.76 150.77 41.66 156.01C42.07 156.24 42.47 156.46 42.89 156.68C44.9 157.75 46.9 158.86 48.96 159.84C49.57 160.12 50.17 160.39 50.78 160.66C52.37 161.34 54.02 161.96 55.7 162.52C45.46 158.52 35.91 152.61 28.32 144.66C18.25 134.12 9.91 118.02 13.67 103.15C13.84 102.46 14.05 101.79 14.27 101.13C14.27 101.13 14.08 101 14.06 100.99C13.99 100.94 13.92 100.89 13.84 100.85C13.7 100.75 13.55 100.66 13.41 100.56C13.13 100.36 12.85 100.16 12.57 99.96C12.29 99.76 12.02 99.55 11.75 99.34C11.48 99.13 11.21 98.91 10.95 98.69C10.69 98.47 10.43 98.25 10.17 98.02C9.91 97.79 9.66 97.56 9.41 97.33C9.16 97.1 8.91 96.86 8.67 96.62C8.43 96.38 8.19 96.13 7.96 95.88C7.73 95.63 7.5 95.38 7.27 95.12C7.04 94.86 6.82 94.61 6.61 94.34C6.39 94.08 6.18 93.81 5.97 93.54C5.76 93.27 5.56 93 5.36 92.72C5.16 92.45 4.97 92.17 4.78 91.89C4.59 91.61 4.41 91.32 4.23 91.04C4.05 90.76 3.88 90.46 3.71 90.17C3.54 89.88 3.38 89.58 3.22 89.28C3.06 88.98 2.91 88.68 2.76 88.38C2.61 88.08 2.47 87.77 2.33 87.46C2.19 87.15 2.06 86.84 1.94 86.53C1.82 86.22 1.69 85.9 1.58 85.58C1.47 85.26 1.36 84.94 1.26 84.62C1.16 84.3 1.06 83.97 0.97 83.64C0.88 83.31 0.8 82.98 0.72 82.65C0.64 82.32 0.57 81.98 0.51 81.65C0.45 81.31 0.39 80.97 0.34 80.64C0.3 80.38 0.27 80.12 0.24 79.86C0.19 80.36 0.1 82.02 0.09 82.45L0.05 82.42ZM127.77 46.21C127.77 46.21 127.74 46.21 127.73 46.21C120.1 46.21 112.62 49.65 106.5 53.99C105.17 54.93 103.89 55.93 102.65 56.99C98.75 60.31 95.28 64.09 92.02 68.04C102.25 69.1 112.22 72.08 121.29 77.44C123.61 78.81 125.86 80.32 128.01 81.97C129.43 78.55 131.38 75.34 134.11 72.86C137.02 70.22 140.64 68.79 144.23 68.79C147.58 68.79 150.9 70.04 153.57 72.72C160.55 79.7 161 90.76 157.11 99.36C154.85 104.36 151.55 108.85 147.74 112.83C147.91 113.68 148.05 114.54 148.17 115.4C148.51 117.9 148.65 120.43 148.55 122.96C148.55 123.08 148.55 123.19 148.53 123.31C150.12 121.62 151.7 119.9 153.14 118.08C162.17 106.71 166.27 90.96 163.57 76.66C161.85 67.57 156.87 59.09 149.49 53.45C143.23 48.67 135.61 46.23 127.77 46.23" fill="#00396C"/>
</svg>
