<?xml version="1.0" encoding="UTF-8"?>
<svg xmlns="http://www.w3.org/2000/svg" width="195" height="33" viewBox="0 0 195 33" fill="none">
  <path id="Vector" d="M195 33L174.931 24.4127V32.2745H167.962V21.7902C167.962 19.2665 168.599 17.2227 169.856 15.6503C171.343 13.8436 173.489 12.9403 176.327 12.9403H184.968C185.76 12.9403 186.397 12.6552 186.848 12.0821C187.255 11.5599 187.463 10.9304 187.463 10.1597C187.463 9.38905 187.255 8.71437 186.848 8.17801C186.4 7.56826 185.76 7.26339 184.968 7.26339H167.962V0.587168H186.153C188.853 0.587168 191.005 1.57802 192.586 3.57382C194.039 5.37485 194.748 7.57955 194.748 10.1823C194.748 12.7935 194.048 14.9926 192.605 16.7795C191.029 18.7809 188.881 19.7802 186.153 19.7802H181.74L195 25.4967V32.9944V33ZM166.212 32.2773H158.667L150.344 7.90701L149.798 7.53157L149.142 7.90701L140.988 32.2773H133.343C133.947 30.2872 134.871 27.2892 136.134 23.2835C137.563 18.8402 138.964 14.603 140.329 10.5775C141.835 6.17938 142.754 3.70368 143.095 3.18144C143.751 2.28375 144.668 1.60624 145.867 1.14046C147.068 0.680325 148.375 0.448845 149.787 0.448845C151.172 0.448845 152.47 0.683148 153.686 1.14046C154.893 1.60342 155.79 2.28092 156.421 3.18144C156.804 3.68956 157.75 6.15398 159.237 10.5577C160.276 13.6488 161.663 17.8889 163.368 23.2637C164.327 26.2701 165.262 29.2766 166.215 32.2773H166.212ZM131.792 32.2773H124.718V19.7887H111.965V32.2773H104.885V0.589991H111.965V12.9431H124.718V0.589991H131.792V32.2773ZM93.4741 19.7887H86.682C84.946 19.7887 83.6972 20.3702 82.9469 21.5305C82.4429 22.3265 82.1937 23.3258 82.1937 24.5284L82.2048 25.1918L82.2657 25.5503V32.2802H75.3048V30.1121V26.5214V21.7958C75.3048 19.2721 75.9333 17.2283 77.1987 15.6559C78.669 13.8493 80.8231 12.9459 83.6446 12.9459H92.2973C93.1086 12.9459 93.7316 12.6608 94.1912 12.0878C94.6148 11.5655 94.8004 10.936 94.8004 10.1654C94.8004 9.3947 94.6121 8.72002 94.1912 8.18366C93.7316 7.57391 93.1086 7.26903 92.2973 7.26903H75.302V0.592814H93.4713C96.2042 0.592814 98.3417 1.58366 99.9255 3.57947C101.368 5.3805 102.091 7.5852 102.091 10.1879C102.091 12.7991 101.376 14.9982 99.9477 16.7851C98.3667 18.7866 96.2042 19.7859 93.4713 19.7859L93.4741 19.7887ZM72.151 32.2773H65.0711V0.589991H72.151V32.2773ZM62.1444 25.9088C62.1444 27.9272 61.3054 29.5899 59.6524 30.9054C58.0935 32.1305 56.2245 32.7516 54.0288 32.7516C52.1294 32.7516 50.4432 32.2463 48.9452 31.2667C47.2728 30.1686 46.1016 28.5821 45.4121 26.5186C45.2626 26.1092 44.6202 23.8594 43.5016 19.7633C42.4467 15.9326 41.5606 13.0391 40.8214 11.0602C39.7664 8.2006 38.9136 6.82019 38.2269 6.92181C37.7728 7.03473 37.471 7.20128 37.3021 7.45252C37.1388 7.70659 37.0474 8.05381 37.0474 8.49701V32.2773H29.9785V6.871C29.9785 4.55338 30.8507 2.78623 32.6089 1.56672C34.1429 0.522241 36.0783 0 38.4401 0C41.5911 0 44.1108 1.59213 45.9964 4.77357C47.234 6.871 48.4468 10.2839 49.5627 14.9869C50.828 20.1698 51.7362 23.3908 52.3288 24.6611L52.9518 25.4176L53.7713 25.6717L54.6712 25.2652C54.9149 24.9914 55.0561 24.6103 55.0561 24.1275V0.352866H62.1444V25.9088ZM27.038 20.9263C27.038 24.5905 25.6009 27.5009 22.7296 29.6831C20.1407 31.6478 17.0008 32.6245 13.2961 32.6245C9.65226 32.6245 6.59266 31.6676 4.13945 29.7593C1.38166 27.6026 0 24.6583 0 20.9263V0.894867H6.91385V19.7802C6.91385 21.4627 7.61991 22.8008 9.05142 23.7973C10.3362 24.695 11.9033 25.1494 13.7834 25.1494C15.561 25.1494 17.0507 24.7147 18.2662 23.8453C19.6312 22.8544 20.3179 21.4938 20.3179 19.7802V0.894867H27.0435V20.9263H27.038Z" fill="#1a2b4a"></path>
</svg>
