<svg width="202" height="48" viewBox="0 0 202 48" fill="none" xmlns="http://www.w3.org/2000/svg">
<path d="M72.4314 39.84H66.5638V36.672H66.3714C64.8324 39.264 62.0429 40.416 59.4457 40.416C52.8086 40.416 51.1733 36.672 51.1733 31.008V17.088H57.4257V29.952C57.4257 33.696 58.4838 35.52 61.3695 35.52C64.7362 35.52 66.1791 33.6 66.1791 28.992V17.088H72.4314" fill="#005DAA"/>
<path d="M76.2791 17.088H82.1467V20.256H82.2429C83.7819 17.664 86.5714 16.512 89.1686 16.512C95.8057 16.512 97.441 20.256 97.441 25.92V39.936H91.1886V26.976C91.1886 23.232 90.1305 21.408 87.2448 21.408C83.8781 21.408 82.4352 23.328 82.4352 27.936V39.84H76.1829" fill="#005DAA"/>
<path d="M107.83 13.5361H101.577V8.35205H107.83V13.5361ZM101.577 17.088H107.83V39.84H101.577V17.088Z" fill="#005DAA"/>
<path d="M111.773 17.088H117.641V19.968H117.737C119.18 17.568 121.681 16.416 124.47 16.416C131.589 16.416 134.763 22.176 134.763 28.704C134.763 34.752 131.396 40.512 124.855 40.512C122.162 40.512 119.565 39.36 118.026 37.056H117.93V47.904H111.677L111.773 17.088ZM128.607 28.512C128.607 24.864 127.164 21.12 123.22 21.12C119.18 21.12 117.833 24.768 117.833 28.512C117.833 32.256 119.276 35.712 123.22 35.712C127.356 35.712 128.607 32.256 128.607 28.512Z" fill="#005DAA"/>
<path d="M137.745 8.35205H143.997V20.2561H144.093C145.632 17.6641 148.422 16.5121 150.73 16.5121C157.368 16.5121 159.003 20.2561 159.003 25.9201V39.9361H152.75V26.9761C152.75 23.2321 151.692 21.4081 148.807 21.4081C145.44 21.4081 143.997 23.3281 143.997 27.9361V39.8401H137.745" fill="#005DAA"/>
<path d="M162.562 24.096C162.947 18.24 168.141 16.512 173.239 16.512C177.76 16.512 183.147 17.568 183.147 23.04V34.944C183.147 37.056 183.339 39.072 183.916 40.032H177.568C177.375 39.36 177.183 38.592 177.087 37.824C175.163 39.936 172.181 40.608 169.488 40.608C165.159 40.608 161.792 38.496 161.792 33.792C161.792 28.608 165.64 27.36 169.488 26.88C173.335 26.304 176.894 26.4 176.894 23.904C176.894 21.216 175.067 20.832 172.854 20.832C170.45 20.832 168.91 21.792 168.718 24.288L162.562 24.096ZM176.894 28.704C175.836 29.664 173.624 29.664 171.7 30.048C169.776 30.432 168.045 31.104 168.045 33.408C168.045 35.712 169.872 36.288 171.892 36.288C176.798 36.288 176.894 32.448 176.894 31.008V28.704Z" fill="#005DAA"/>
<path d="M187.09 17.088H192.958V21.312H193.054C194.209 18.432 197.287 16.416 200.269 16.416C200.75 16.416 201.23 16.512 201.615 16.608V22.464C201.038 22.368 200.172 22.272 199.403 22.272C194.882 22.272 193.247 25.536 193.247 29.568V39.84H186.994" fill="#005DAA"/>
<path d="M2.40476 40.512L0 39.744L0.480952 37.248C0.961905 34.656 1.82762 32.256 3.17429 30.048C4.90571 27.072 7.21429 24.576 10.1 22.656L10.9657 22.08L11.1581 23.04C11.4467 24.672 11.8314 26.304 12.4086 27.84L12.601 28.224L12.2162 28.512C10.581 29.76 9.23429 31.296 8.27238 32.928C7.79143 33.792 7.40667 34.656 7.0219 35.616C7.98381 35.808 9.0419 35.904 10.0038 35.904C11.9276 35.904 13.9476 35.52 15.7752 34.944C19.3343 33.6 22.5086 31.104 24.6248 27.552L24.9133 26.976L25.3943 27.072C26.26 27.168 27.0295 27.456 27.799 27.648C28.5686 27.936 29.3381 28.32 30.1076 28.704L30.6848 28.992L30.3962 29.568C30.2038 29.856 30.0114 30.24 29.819 30.528C27.0295 35.328 22.701 38.784 17.8914 40.512C15.3905 41.376 12.7933 41.856 10.1 41.856C7.40667 41.856 4.90571 41.472 2.40476 40.512Z" fill="#7AC143"/>
<path d="M22.8933 24.672H22.1238L21.9314 24.192C21.3543 22.56 21.0657 20.928 21.0657 19.296V18.528H21.8352C22.22 18.528 22.6048 18.528 22.9895 18.528C25.6829 18.528 28.28 19.008 30.6848 19.872C32.0314 20.352 33.2819 20.928 34.4362 21.6C40.1114 24.864 44.2476 30.528 45.4981 37.248L45.9791 39.84L43.4781 40.704C40.9771 41.568 38.38 42.048 35.7829 42.048C33.7629 42.048 31.6467 41.76 29.7229 41.28C28.3762 40.896 27.1257 40.416 25.8752 39.84L24.8171 39.36L25.7791 38.592C27.0295 37.536 28.1838 36.384 29.2419 35.136L29.6267 34.752L30.1076 34.944C30.4924 35.136 30.9733 35.232 31.3581 35.328C32.801 35.712 34.2438 35.904 35.7829 35.904C36.7448 35.904 37.7067 35.808 38.6686 35.616C37.3219 31.968 34.6286 28.896 31.3581 26.976C30.4924 26.496 29.5305 26.016 28.6648 25.728C26.741 25.056 24.8171 24.672 22.8933 24.672Z" fill="#FBB034"/>
<path d="M24.9133 1.728C29.6267 5.76 32.4162 11.424 32.8971 17.376L32.9933 18.528L31.9352 18.144C31.7429 18.048 31.4543 17.952 31.2619 17.856C29.9152 17.376 28.5686 16.992 27.1257 16.8L26.6448 16.704L26.5486 16.224C26.0676 13.44 24.8171 10.656 22.9895 8.448C22.4124 9.216 21.8352 9.984 21.3543 10.752C19.9114 13.248 19.1419 16.128 19.1419 19.008C19.1419 19.104 19.1419 19.104 19.1419 19.2C19.1419 22.08 19.8152 24.864 21.3543 27.552L21.739 28.224L21.3543 28.608C20.7771 29.28 20.1038 29.952 19.4305 30.528C18.8533 31.008 18.18 31.488 17.5067 31.872L16.9295 32.256L16.5448 31.68C16.3524 31.392 16.16 31.104 15.9676 30.72C13.8514 27.168 12.8895 23.136 12.8895 19.296C12.8895 19.2 12.8895 19.104 12.8895 19.104C12.8895 15.168 13.9476 11.232 15.9676 7.872C17.2181 5.664 18.9495 3.648 20.9695 1.92L22.8933 0L24.9133 1.728Z" fill="#00AEEF"/>
</svg>
